<svg width="210" height="32" viewBox="0 0 210 32" fill="none" xmlns="http://www.w3.org/2000/svg">
<path d="M23.3239 19.2814C25.1204 24.1487 30.535 26.6401 35.4037 24.8478C40.2697 23.0429 42.7667 17.6339 40.9632 12.7651C39.1653 7.89086 33.759 5.40359 28.8833 7.20011C24.0118 9.00359 21.5245 14.4099 23.3239 19.2814Z" fill="white"/>
<path d="M11.2996 25.3904C16.4928 25.3904 20.7028 21.1804 20.7028 15.9872C20.7028 10.7939 16.4928 6.58398 11.2996 6.58398C6.10637 6.58398 1.89642 10.7939 1.89642 15.9872C1.89642 21.1804 6.10637 25.3904 11.2996 25.3904Z" fill="white"/>
<path d="M12.9026 15.8877C12.9026 16.8459 12.1241 17.6313 11.166 17.6313C10.2037 17.6313 9.42657 16.8473 9.42657 15.8877C9.42657 14.931 10.2037 14.1553 11.166 14.1553C12.1241 14.1567 12.9026 14.931 12.9026 15.8877Z" fill="#191825" fill-opacity="0.37"/>
<path d="M33.8575 15.8877C33.8575 16.8459 33.0818 17.6313 32.1236 17.6313C31.1585 17.6313 30.3842 16.8473 30.3842 15.8877C30.3842 14.931 31.1585 14.1553 32.1236 14.1553C33.0831 14.1567 33.8575 14.931 33.8575 15.8877Z" fill="#191825" fill-opacity="0.37"/>
<path d="M5.99905 15.8873C5.99905 18.7381 8.31782 21.0527 11.1686 21.0527C14.0124 21.0527 16.3298 18.7381 16.3298 15.8873C16.3298 13.0435 14.011 10.7275 11.1686 10.7275C8.31921 10.7303 5.99905 13.0449 5.99905 15.8873ZM7.78026 15.8873C7.78026 14.0226 9.30382 12.506 11.1714 12.506C13.0361 12.506 14.5513 14.0267 14.5513 15.8873C14.5513 17.7577 13.0361 19.277 11.1714 19.277C9.30382 19.2784 7.78026 17.7604 7.78026 15.8873Z" fill="#191825" fill-opacity="0.37"/>
<path d="M26.9571 15.8873C26.9571 18.7381 29.2731 21.0527 32.1225 21.0527C34.9677 21.0527 37.2823 18.7381 37.2823 15.8873C37.2823 13.0435 34.9677 10.7275 32.1225 10.7275C29.2745 10.7303 26.9571 13.0449 26.9571 15.8873ZM28.7383 15.8873C28.7383 14.0226 30.2577 12.506 32.1267 12.506C33.9914 12.506 35.5052 14.0267 35.5052 15.8873C35.5052 17.7577 33.9914 19.277 32.1267 19.277C30.2549 19.2784 28.7383 17.7604 28.7383 15.8873Z" fill="#191825" fill-opacity="0.37"/>
<path d="M28.5214 6.20993C29.6104 5.80885 30.7245 5.61388 31.8247 5.58324C28.8277 4.24211 25.4352 3.5625 21.6765 3.5625C17.9469 3.5625 14.5043 4.25743 11.5087 5.53867C16.9303 5.64591 21.3381 9.89211 21.7183 15.2441C21.8102 14.0158 22.111 12.8014 22.6416 11.651C23.81 9.10665 25.9004 7.17643 28.5214 6.20993Z" fill="white"/>
<path d="M40.5511 9.8101C41.0414 7.71137 42.597 5.61125 42.597 5.61125L35.6156 5.60707C31.7008 3.07941 26.9463 1.73828 21.6793 1.73828C16.2118 1.73828 11.2748 3.11144 7.38233 5.65721L0.838257 5.66278C0.838257 5.66278 2.37575 7.73922 2.87292 9.82263C1.60004 11.5537 0.843827 13.6803 0.843827 15.9893C0.843827 21.7535 5.53568 26.4426 11.3027 26.4426C14.5991 26.4426 17.5389 24.9065 19.4566 22.5194L21.6835 25.8535L23.927 22.4902C24.9367 23.7742 26.2389 24.8159 27.7652 25.522C30.304 26.6891 33.1492 26.8046 35.7688 25.8368C41.1792 23.8355 43.9576 17.8039 41.9563 12.4004C41.6054 11.4493 41.1263 10.5844 40.5511 9.8101ZM21.6779 3.56405C25.4367 3.56405 28.8292 4.24366 31.8262 5.58618C30.7246 5.61543 29.6119 5.81179 28.5228 6.21009C25.9018 7.17659 23.8115 9.10681 22.6458 11.647C22.1152 12.7973 21.8158 14.0117 21.7225 15.2401C21.3395 9.89087 16.9318 5.64467 11.5102 5.53465C14.5044 4.25759 17.9456 3.56405 21.6779 3.56405ZM18.213 20.6603C16.7117 22.8746 14.1715 24.3341 11.2999 24.3341C6.69576 24.3341 2.94952 20.5851 2.94952 15.9907C2.94952 11.3838 6.69715 7.64174 11.2999 7.64174C15.9026 7.64174 19.6488 11.3838 19.6488 15.9907C19.6488 16.272 19.5945 16.5366 19.5653 16.8082C19.426 18.2189 18.972 19.5406 18.213 20.6603ZM35.0376 23.8578C32.9459 24.6265 30.6772 24.5416 28.6509 23.6071C27.2137 22.9414 26.0369 21.8983 25.1888 20.6032C24.8434 20.0795 24.5398 19.5239 24.3156 18.9153C24.0607 18.2273 23.934 17.5184 23.8658 16.804C23.7265 15.3556 23.9368 13.8906 24.5607 12.5327C25.4966 10.5064 27.1622 8.96476 29.2539 8.19044C33.574 6.59725 38.3828 8.81296 39.9788 13.1316C41.5734 17.4502 39.3563 22.259 35.0376 23.8578Z" fill="#191825" fill-opacity="0.37"/>
<path d="M54.9314 3.26493L51.8704 4.32195C51.8704 4.32195 51.8704 7.98741 51.8704 8.31608C51.5501 8.31608 48.4779 8.31608 48.4779 8.31608V10.9942C48.4779 10.9942 51.4554 10.9942 51.7785 10.9942C51.7785 11.3423 51.7785 19.5924 51.7785 19.5924C51.7785 23.6784 53.1697 25.3552 56.5915 25.3552C57.4591 25.3552 58.2877 25.248 59.1191 25.021L59.2542 24.9875L59.2166 22.2106L58.9827 22.2997C58.31 22.5323 57.7836 22.6465 57.3769 22.6465C55.7698 22.6465 55.1738 21.7426 55.1738 19.3027C55.1738 19.3027 55.1738 11.3409 55.1738 10.9983C55.4996 10.9983 59.0885 10.9983 59.0885 10.9983V8.31608C59.0885 8.31608 55.501 8.31608 55.1738 8.31608C55.1738 7.98463 55.1738 3.18555 55.1738 3.18555L54.9314 3.26493Z" fill="#191825" fill-opacity="0.37"/>
<path d="M65.5156 11.0293C65.5156 10.0865 65.5156 8.31646 65.5156 8.31646H62.41V25.0603H65.8053V16.6557C65.8053 13.1322 67.2857 11.1909 69.9679 11.1909C70.3565 11.1909 70.7339 11.2494 71.1934 11.3789L71.4135 11.4416L71.5249 8.1368L70.064 8.02539C68.0962 8.024 66.5072 9.08659 65.5156 11.0293Z" fill="#191825" fill-opacity="0.37"/>
<path d="M77.5765 8.31476H74.3623V25.06H77.7576V8.31476H77.5765ZM74.0336 3.40844C74.0336 4.52256 74.9416 5.42639 76.053 5.42639C77.1671 5.42639 78.0723 4.52256 78.0723 3.40844C78.0723 2.29571 77.1671 1.3877 76.053 1.3877C74.9416 1.38492 74.0336 2.29571 74.0336 3.40844Z" fill="#191825" fill-opacity="0.37"/>
<path d="M89.7485 7.92188C87.4185 7.92188 85.4591 9.02486 84.1528 11.0317C84.1528 10.2295 84.1528 8.31182 84.1528 8.31182H81.0486V31.8769H84.4466C84.4466 31.8769 84.4466 23.6477 84.4466 22.7425C85.6722 24.4095 87.4297 25.3259 89.6175 25.3259C93.9097 25.3259 96.6825 21.8038 96.6825 16.3655C96.6825 11.3158 93.8944 7.92188 89.7485 7.92188ZM88.8001 22.5795C86.1136 22.5795 84.4452 20.2831 84.4452 16.5939C84.4452 13.0329 86.2055 10.7322 88.9296 10.7322C91.5547 10.7322 93.1242 12.9131 93.1242 16.5591C93.1256 20.2705 91.467 22.5795 88.8001 22.5795Z" fill="#191825" fill-opacity="0.37"/>
<path d="M106.606 7.92285C104.529 7.92285 102.711 8.31558 101.042 9.11775L100.939 9.16788L100.975 12.066L101.243 11.9156C102.837 11.0243 104.347 10.5689 105.722 10.5689C108.181 10.5689 109.593 11.9783 109.593 14.4419C109.593 14.4419 109.593 14.5129 109.593 14.5853C109.294 14.5853 107.65 14.5853 107.65 14.5853C102.06 14.5853 98.9853 16.6102 98.9853 20.2813C98.9853 23.2295 101.205 25.2906 104.383 25.2906C106.722 25.2906 108.531 24.3715 109.82 22.6418C109.82 23.3145 109.82 25.0594 109.82 25.0594H112.888V14.9265C112.887 10.282 110.774 7.92285 106.606 7.92285ZM109.588 17.9917C109.588 20.8759 107.852 22.7421 105.167 22.7421C103.523 22.7421 102.375 21.6614 102.375 20.1155C102.375 18.0836 104.318 16.9681 107.844 16.9681C107.844 16.9681 109.297 16.9681 109.59 16.9681C109.588 17.2286 109.588 17.9917 109.588 17.9917Z" fill="#191825" fill-opacity="0.37"/>
<path d="M127.307 0.320312C127.307 0.320312 127.307 9.65526 127.307 10.5883C126.055 8.84753 124.313 7.92559 122.075 7.92559C117.921 7.92559 115.13 11.3459 115.13 16.4291C115.13 21.6655 117.961 25.3226 122.007 25.3226C124.404 25.3226 126.273 24.2614 127.568 22.1989C127.568 23.0331 127.568 25.0622 127.568 25.0622H130.707V0.320312H127.307ZM122.887 22.5122C120.3 22.5122 118.692 20.2561 118.692 16.6241C118.692 12.9879 120.313 10.6371 122.826 10.6371C125.631 10.6371 127.305 12.8737 127.305 16.6241C127.307 20.2074 125.578 22.5122 122.887 22.5122Z" fill="#191825" fill-opacity="0.37"/>
<path d="M145.879 8.31543L141.064 17.9846L136.613 8.31543H132.788L140.993 25.0607L149.422 8.31543H145.879Z" fill="#191825" fill-opacity="0.37"/>
<path d="M154.364 8.31573H151.149V25.061H154.548V8.31573H154.364ZM150.824 3.40942C150.824 4.52354 151.731 5.42737 152.844 5.42737C153.962 5.42737 154.863 4.52354 154.863 3.40942C154.863 2.29669 153.959 1.38868 152.844 1.38868C151.732 1.38589 150.824 2.29669 150.824 3.40942Z" fill="#191825" fill-opacity="0.37"/>
<path d="M158.529 12.6094C158.529 14.9643 160.148 16.2052 163.136 17.6675C165.021 18.5936 166.005 19.1395 166.005 20.4444C166.005 21.7828 164.796 22.6476 162.919 22.6476C161.592 22.6476 160.118 22.2744 158.659 21.5572L158.411 21.4346L158.301 24.387L158.414 24.4288C159.809 24.9845 161.276 25.256 162.791 25.256C166.944 25.256 169.625 23.2771 169.625 20.2146C169.625 17.6619 167.927 16.3653 164.984 14.9922C162.83 13.9797 161.926 13.3906 161.926 12.3169C161.926 11.3003 162.932 10.6374 164.486 10.6374C165.89 10.6374 167.26 10.9493 168.557 11.5677L168.802 11.6805L168.949 8.79209L168.814 8.7531C167.408 8.3353 166.019 8.12501 164.682 8.12501C161.003 8.11944 158.529 9.92432 158.529 12.6094Z" fill="#191825" fill-opacity="0.37"/>
<path d="M180.219 7.92285C175.116 7.92285 171.948 11.2833 171.948 16.6868C171.948 22.0931 175.119 25.448 180.219 25.448C185.345 25.448 188.528 22.0917 188.528 16.6868C188.528 11.2847 185.343 7.92285 180.219 7.92285ZM180.248 22.678C177.428 22.678 175.534 20.2576 175.534 16.6548C175.534 13.0325 177.428 10.6037 180.248 10.6037C183.114 10.6037 184.965 12.981 184.965 16.6548C184.965 20.3147 183.117 22.678 180.248 22.678Z" fill="#191825" fill-opacity="0.37"/>
<path d="M194.792 11.0293C194.792 10.0865 194.792 8.31646 194.792 8.31646H191.686V25.0603H195.081V16.6557C195.081 13.1322 196.553 11.1909 199.24 11.1909C199.626 11.1909 200 11.2494 200.451 11.3789L200.681 11.4416L200.787 8.1368L199.332 8.02539C197.372 8.024 195.786 9.08659 194.792 11.0293Z" fill="#191825" fill-opacity="0.37"/>
<path d="M208.886 7.57498C209.443 8.13901 209.736 8.88826 209.736 9.6946C209.736 10.5372 209.421 11.292 208.842 11.8476C208.237 12.4214 207.488 12.7292 206.706 12.7292C205.888 12.7292 205.136 12.4075 204.551 11.8031C203.993 11.2237 203.677 10.4828 203.677 9.69182C203.677 8.88547 203.998 8.10419 204.6 7.51092C205.164 6.95804 205.889 6.65723 206.706 6.65723C207.543 6.65862 208.304 6.97614 208.886 7.57498ZM204.976 7.90783C204.486 8.39804 204.224 9.02891 204.224 9.6946C204.224 10.3436 204.466 10.941 204.934 11.4173C205.403 11.9075 206.026 12.1721 206.693 12.1721C207.342 12.1721 207.966 11.9228 208.448 11.4549C208.921 10.9995 209.182 10.3756 209.182 9.69321C209.182 9.02613 208.939 8.42032 208.48 7.95657C207.998 7.46636 207.387 7.20872 206.706 7.20872C206.034 7.20872 205.445 7.44825 204.976 7.90783ZM206.761 7.96493C207.711 7.96493 208.198 8.30891 208.198 8.93143C208.198 9.36037 207.944 9.69321 207.491 9.82969L208.237 11.2906H207.226L206.604 9.97174H206.341V11.2906H205.424V7.96353L206.761 7.96493ZM206.334 9.43H206.653C207.061 9.43 207.257 9.28655 207.257 9.00106C207.257 8.67518 207.051 8.54149 206.604 8.54149H206.334V9.43Z" fill="#191825" fill-opacity="0.37"/>
</svg>
