<svg width="112" height="32" viewBox="0 0 112 32" fill="none" xmlns="http://www.w3.org/2000/svg">
<path d="M53.9353 25.0107H50.4689C50.447 25.0107 50.447 25.0107 50.436 24.9997L47.4523 21.3578L44.4686 24.9997C44.4576 25.0107 44.4466 25.0107 44.4357 25.0107H41.6604C41.6384 25.0107 41.6275 24.9997 41.6165 24.9888C41.6165 24.9778 41.6165 24.9558 41.6275 24.9449L46.0262 19.5479L41.6823 14.2057C41.6713 14.1838 41.6713 14.1728 41.6713 14.1508C41.6823 14.1399 41.6933 14.1289 41.7042 14.1289H45.1706C45.1816 14.1289 45.1926 14.1399 45.2035 14.1508L47.8252 17.3978L50.4908 14.1508C50.5018 14.1399 50.5128 14.1289 50.5238 14.1289H53.3429C53.3539 14.1289 53.3758 14.1399 53.3868 14.1508C53.3978 14.1728 53.3868 14.1838 53.3758 14.2057L49.2623 19.153L53.9792 24.9449C53.9901 24.9558 53.9901 24.9778 53.9901 24.9888C53.9682 25.0107 53.9572 25.0107 53.9353 25.0107Z" fill="#191825" fill-opacity="0.37"/>
<path d="M72.682 16.0372C71.1462 16.0372 70.1041 16.9696 69.797 18.5821H75.0185V18.4724C75.0185 17.189 74.0641 16.0372 72.682 16.0372ZM77.706 20.2495C77.695 20.2604 77.6841 20.2714 77.6731 20.2714H69.7421C69.9067 22.1143 71.1023 23.1674 73.044 23.1674C74.2396 23.1674 75.5121 22.7615 77.3001 21.8071C77.333 21.7852 77.366 21.8181 77.366 21.851V24.2863C77.366 24.3082 77.355 24.3192 77.344 24.3192C75.6766 25.0212 73.9983 25.5039 72.682 25.5039C69.2704 25.5039 66.7913 23.0138 66.7913 19.5913C66.7913 16.1688 69.2704 13.6787 72.682 13.6787C75.7973 13.6787 77.7938 15.7739 77.7938 18.6589C77.7938 19.1306 77.717 20.2166 77.706 20.2495Z" fill="#191825" fill-opacity="0.37"/>
<path d="M93.8093 11.8699C92.833 11.8699 92.0432 11.091 92.0432 10.1367C92.0432 9.14941 92.833 8.34863 93.8093 8.34863C94.7856 8.34863 95.5754 9.14941 95.5754 10.1367C95.5754 11.091 94.7856 11.8699 93.8093 11.8699ZM92.3833 25.0114C92.3504 25.0114 92.3394 25.0004 92.3394 24.9675V14.1625C92.3394 14.1406 92.3504 14.1186 92.3723 14.1186H95.2353C95.2573 14.1186 95.2683 14.1406 95.2683 14.1625V24.9675C95.2683 25.0004 95.2463 25.0114 95.2244 25.0114H92.3833Z" fill="#191825" fill-opacity="0.37"/>
<path d="M59.1784 23.3868C58.6628 23.3868 58.1363 23.31 57.522 23.1564L57.533 16.2236C58.246 15.9933 58.8603 15.8946 59.4746 15.8946C61.46 15.8946 62.7874 17.3535 62.7874 19.5364C62.7874 21.873 61.3723 23.3868 59.1784 23.3868ZM59.9572 13.6787C59.1455 13.6787 58.3337 13.8213 57.4781 14.1175H54.626C54.6041 14.1175 54.5821 14.1394 54.5821 14.1614V31.8772C55.4378 31.7565 56.4908 31.4494 57.522 30.7254V25.3393C58.224 25.4381 58.8054 25.5039 59.3649 25.5039C63.27 25.5039 65.793 23.1674 65.793 19.5474C65.793 16.092 63.3907 13.6787 59.9572 13.6787Z" fill="#191825" fill-opacity="0.37"/>
<path d="M87.1728 22.4879C86.2843 22.9596 85.4835 23.179 84.7376 23.179C82.9715 23.179 81.9074 21.9284 81.9074 19.8333C81.9074 17.42 83.2567 15.8513 85.3519 15.8513C85.9333 15.8513 86.4927 15.9939 87.1728 16.3011V22.4879ZM87.1728 8.40301V14.0523C86.3391 13.811 85.6042 13.7013 84.8582 13.7013C81.4577 13.7013 78.9018 16.2572 78.9018 19.6578C78.9018 23.0364 81.1615 25.4935 84.2769 25.4935C85.3519 25.4935 86.3611 25.2193 87.5458 24.616V25.5923C88.3246 25.4387 89.2241 25.1316 90.1127 24.4953V7.24023C89.2461 7.3609 88.2149 7.65708 87.1728 8.40301Z" fill="#191825" fill-opacity="0.37"/>
<path d="M105.196 22.4658C104.329 22.9595 103.594 23.2008 102.936 23.2008C101.039 23.2008 99.9087 21.9503 99.9087 19.8551C99.9087 17.4747 101.247 15.8731 103.232 15.8731C103.759 15.8731 104.406 16.0816 105.196 16.4984V22.4658ZM108.136 13.9864C108.136 13.9206 108.081 13.8657 108.015 13.8657H105.701C105.635 13.8657 105.569 13.9206 105.569 13.9864V14.3813H105.514C104.45 13.9096 103.529 13.7012 102.64 13.7012C99.437 13.7012 96.925 16.3558 96.925 19.7564C96.925 23.1898 99.1737 25.4934 102.519 25.4934C103.408 25.4934 104.56 25.4276 105.635 24.199V25.5922C106.392 25.4276 107.291 25.1095 108.136 24.4952V13.9864Z" fill="#191825" fill-opacity="0.37"/>
<path d="M33.7401 22.3119H40.9252C40.8155 23.1127 40.5412 24.056 39.9269 25.0104H32.4567C31.5462 25.0104 30.7893 24.2974 30.7015 23.4088C30.7015 23.3979 30.6906 23.3869 30.6906 23.365V9.19231C30.6906 9.18134 30.7015 9.17037 30.7015 9.1594C30.7893 8.25989 31.5462 7.54688 32.4567 7.54688H40.9142C40.8045 8.34765 40.5303 9.31297 39.905 10.2673H33.7401V14.1286H39.8501C39.8721 14.1286 39.894 14.1505 39.894 14.1725V16.849C39.894 16.871 39.8721 16.8929 39.8501 16.8929H33.7401V22.3119Z" fill="#191825" fill-opacity="0.37"/>
<path d="M24.7456 25.2424C24.0323 25.2424 23.5934 24.6828 23.5934 24.0025C23.5934 23.2783 24.0982 22.7625 24.7456 22.7625C25.382 22.7625 25.8867 23.2673 25.8867 24.0025C25.8867 24.7377 25.382 25.2424 24.7456 25.2424ZM24.7456 22.6309C24.0213 22.6309 23.3959 23.1795 23.3959 24.0025C23.3959 24.7815 23.9555 25.3741 24.7456 25.3741C25.4588 25.3741 26.0842 24.8254 26.0842 24.0025C26.0842 23.1795 25.4698 22.6309 24.7456 22.6309Z" fill="#191825" fill-opacity="0.37"/>
<path d="M24.4269 23.8919V23.3872H24.7671C24.9426 23.3872 25.1401 23.4091 25.1401 23.6176C25.1401 23.87 24.9536 23.881 24.7451 23.881C24.7341 23.8919 24.4269 23.8919 24.4269 23.8919ZM25.3815 23.6505C25.3815 23.3214 25.184 23.1787 24.789 23.1787H24.1745V24.8027H24.4379V24.1114H24.6903L25.1072 24.8027H25.4145L24.9646 24.0895C25.206 24.0675 25.3815 23.9468 25.3815 23.6505Z" fill="#191825" fill-opacity="0.37"/>
<path d="M110.505 15.918C109.792 15.918 109.353 15.3583 109.353 14.678C109.353 13.9538 109.858 13.4381 110.505 13.4381C111.142 13.4381 111.647 13.9428 111.647 14.678C111.647 15.4132 111.142 15.918 110.505 15.918ZM110.505 13.3174C109.781 13.3174 109.156 13.866 109.156 14.689C109.156 15.4681 109.715 16.0606 110.505 16.0606C111.219 16.0606 111.844 15.512 111.844 14.689C111.844 13.8551 111.219 13.3174 110.505 13.3174Z" fill="#191825" fill-opacity="0.37"/>
<path d="M110.176 14.5685V14.0747H110.516C110.692 14.0747 110.889 14.0966 110.889 14.3051C110.889 14.5575 110.703 14.5685 110.494 14.5685H110.176ZM111.141 14.338C111.141 14.0089 110.944 13.8662 110.549 13.8662H109.934V15.4902H110.198V14.7989H110.45L110.867 15.4902H111.174L110.724 14.777C110.955 14.755 111.141 14.6343 111.141 14.338Z" fill="#191825" fill-opacity="0.37"/>
<path d="M15.4759 10.2569L14.9603 8.78693L10.5286 2.87435L11.3184 2.6769L18.9423 9.26959L23.4288 7.98616C23.9553 7.85452 24.5587 7.82161 25.0084 7.82161C23.6043 4.78305 21.0155 2.282 17.6149 1.07535C10.8906 -1.32698 3.48618 2.19424 1.09482 8.92954C0.34889 11.0138 0.184347 13.1638 0.491494 15.2041L11.2307 11.4745L15.4759 10.2569Z" fill="#191825" fill-opacity="0.37"/>
<path d="M25.4911 8.98438C25.0962 9.23667 24.5148 9.57673 23.9444 9.76321L19.4469 11.0466L16.4522 20.6779L15.6734 20.9302L16.3096 13.5806L15.9586 12.0558L11.7463 13.2625L0.60125 15.8623C1.48978 20.1404 4.51738 23.881 8.9381 25.4497C15.6734 27.852 23.0669 24.3308 25.4692 17.5955C26.5003 14.7105 26.4345 11.6829 25.4911 8.98438Z" fill="#191825" fill-opacity="0.37"/>
<path d="M15.9479 12.045L16.2989 13.5697L15.6627 20.9193L16.4415 20.667L19.4362 11.0358L23.9337 9.75234C24.5042 9.56586 25.0855 9.23677 25.4804 8.9735C25.3378 8.5786 25.1843 8.19466 25.0088 7.81073C24.548 7.81073 23.9557 7.83267 23.4291 7.97527L18.9426 9.25871L11.3188 2.66602L10.529 2.86347L14.9497 8.77605L15.4653 10.246L11.22 11.4636L0.480865 15.1932C0.513774 15.4126 0.557652 15.643 0.60153 15.8624L11.7356 13.2407L15.9479 12.045Z" fill="white"/>
</svg>
