<svg width="102" height="32" viewBox="0 0 102 32" fill="none" xmlns="http://www.w3.org/2000/svg">
<path d="M54.0113 8.24961C54.0113 9.38692 53.0949 10.3027 51.9576 10.3027C50.8203 10.3027 49.9045 9.38692 49.9045 8.24961C49.9045 7.1123 50.7891 6.19652 51.9576 6.19652C53.1271 6.22808 54.0113 7.14418 54.0113 8.24961ZM45.5452 12.388V12.8935C45.5452 12.8935 44.5664 11.6294 42.4814 11.6294C39.0385 11.6294 36.353 14.2514 36.353 17.8839C36.353 21.4852 39.007 24.1385 42.4814 24.1385C44.5979 24.1385 45.5452 22.8434 45.5452 22.8434V23.3802C45.5452 23.633 45.7352 23.822 45.9877 23.822H48.546V11.9443H45.9877C45.7352 11.9452 45.5452 12.1668 45.5452 12.388ZM45.5452 20.0004C45.0719 20.6956 44.1239 21.2959 42.9869 21.2959C40.9654 21.2959 39.4172 20.0323 39.4172 17.8839C39.4172 15.7359 40.9654 14.4723 42.9869 14.4723C44.0927 14.4723 45.1034 15.1041 45.5452 15.7674V20.0004ZM50.4416 11.9452H53.4739V23.8229H50.4416V11.9452ZM95.7399 11.629C93.655 11.629 92.6754 12.8932 92.6754 12.8932V6.22808H89.6431V23.8229H92.2021C92.4549 23.8229 92.6439 23.6017 92.6439 23.3805V22.8437C92.6439 22.8437 93.6234 24.1388 95.7077 24.1388C99.1512 24.1388 101.836 21.4861 101.836 17.8849C101.836 14.2836 99.1512 11.629 95.7399 11.629ZM95.2344 21.264C94.0652 21.264 93.1494 20.6644 92.6754 19.9689V15.7358C93.1494 15.1041 94.1602 14.4408 95.2344 14.4408C97.2559 14.4408 98.8038 15.7043 98.8038 17.8524C98.8038 20.0004 97.2562 21.264 95.2344 21.264ZM88.064 16.7788V23.8545H85.0311V17.1259C85.0311 15.1678 84.3993 14.3776 82.6946 14.3776C81.7789 14.3776 80.8309 14.8516 80.2297 15.5468V23.8233H77.1981V11.9456H79.598C79.8507 11.9456 80.0404 12.1668 80.0404 12.388V12.8935C80.9249 11.9771 82.0935 11.6294 83.262 11.6294C84.589 11.6294 85.6947 12.009 86.5793 12.767C87.6529 13.6515 88.064 14.7885 88.064 16.7788ZM69.8368 11.629C67.7525 11.629 66.7729 12.8932 66.7729 12.8932V6.22808H63.7406V23.8229H66.2989C66.5517 23.8229 66.7414 23.6017 66.7414 23.3805V22.8437C66.7414 22.8437 67.7209 24.1388 69.8052 24.1388C73.2487 24.1388 75.9336 21.4861 75.9336 17.8849C75.9651 14.2833 73.2803 11.629 69.8368 11.629ZM69.3313 21.264C68.1627 21.264 67.2469 20.6644 66.7729 19.9689V15.7358C67.2469 15.1041 68.2577 14.4408 69.3313 14.4408C71.3534 14.4408 72.9009 15.7043 72.9009 17.8524C72.9009 20.0004 71.3534 21.264 69.3313 21.264ZM61.1186 11.629C62.0343 11.629 62.5083 11.7875 62.5083 11.7875V14.5985C62.5083 14.5985 59.9813 13.7456 58.4022 15.5465V23.8542H55.3692V11.9452H57.9282C58.1809 11.9452 58.37 12.1665 58.37 12.3877V12.8932C58.9392 12.2296 60.1712 11.629 61.1186 11.629ZM29.6251 22.7487C29.4673 22.3697 29.3092 21.9592 29.1514 21.6114C28.8984 21.0431 28.6456 20.5057 28.425 20.0004L28.3934 19.9689C26.2135 15.2303 23.8764 10.4292 21.4121 5.6913L21.3174 5.50132C21.0583 5.00981 20.8057 4.51486 20.5598 4.01657C20.2436 3.4476 19.928 2.84802 19.4225 2.27905C18.4117 1.01551 16.9585 0.320312 15.4109 0.320312C13.8312 0.320312 12.4099 1.01551 11.3679 2.21562C10.8939 2.78396 10.5461 3.38418 10.2306 3.95315C9.98404 4.45112 9.73146 4.94607 9.47289 5.43789L9.37791 5.62786C6.9455 10.3658 4.57653 15.1672 2.39689 19.9055L2.36503 19.9683C2.14413 20.4744 1.89104 21.0112 1.63827 21.5792C1.48048 21.927 1.3227 22.306 1.16492 22.7165C0.754045 23.8851 0.627496 24.9909 0.785911 26.1285C1.13335 28.4978 2.71246 30.4871 4.89241 31.3723C5.71383 31.72 6.56682 31.8778 7.45104 31.8778C7.70381 31.8778 8.01939 31.8463 8.27247 31.8144C9.31511 31.6882 10.389 31.341 11.4316 30.7408C12.7267 30.0141 13.9587 28.9721 15.3485 27.4558C16.7382 28.9721 18.0018 30.0141 19.2653 30.7408C20.3083 31.341 21.3818 31.6882 22.4241 31.8144C22.6769 31.8466 22.9931 31.8778 23.2459 31.8778C24.1304 31.8778 25.0147 31.72 25.8042 31.3723C28.0157 30.4871 29.5633 28.4662 29.911 26.1285C30.1619 25.023 30.0357 23.9179 29.6251 22.7487ZM15.3791 24.3913C13.6731 22.2432 12.5674 20.2217 12.1887 18.5163C12.0309 17.7896 11.999 17.1578 12.094 16.5891C12.1568 16.0836 12.3468 15.6412 12.5995 15.2622C13.1998 14.4098 14.2105 13.8724 15.3794 13.8724C16.5486 13.8724 17.5909 14.378 18.1596 15.2622C18.4123 15.6412 18.6017 16.0839 18.6654 16.5891C18.7598 17.1581 18.7282 17.8211 18.5704 18.5163C18.1902 20.1901 17.0844 22.212 15.3791 24.3913ZM27.9823 25.876C27.7614 27.5186 26.6556 28.9405 25.1081 29.5723C24.3501 29.8878 23.5283 29.9828 22.7075 29.8878C21.918 29.7929 21.1278 29.5401 20.307 29.0667C19.1697 28.4343 18.0327 27.4558 16.7057 26.0022C18.7904 23.4439 20.0539 21.1059 20.5279 19.0216C20.7491 18.042 20.781 17.1578 20.6857 16.3361C20.5598 15.5465 20.2751 14.8198 19.833 14.188C18.8532 12.766 17.2103 11.9452 15.3788 11.9452C13.5472 11.9452 11.9043 12.7982 10.9251 14.188C10.483 14.8198 10.1984 15.5465 10.0722 16.3361C9.94593 17.1578 9.97717 18.0736 10.2299 19.0216C10.7036 21.1059 11.9987 23.4752 14.0518 26.0338C12.7567 27.487 11.5878 28.4665 10.4505 29.0983C9.6291 29.5723 8.83986 29.8251 8.05031 29.9194C7.19764 30.0144 6.3759 29.8879 5.64946 29.6038C4.10191 28.9721 2.99616 27.5501 2.77526 25.9076C2.68059 25.118 2.74339 24.3285 3.05959 23.4439C3.15394 23.1277 3.31236 22.8122 3.47014 22.4332C3.69136 21.9276 3.9435 21.3902 4.19658 20.8534L4.22846 20.7906C6.40778 16.0836 8.74519 11.2822 11.1776 6.60739L11.2723 6.41742C11.5254 5.94407 11.7781 5.43853 12.0306 4.96454C12.2834 4.459 12.5674 3.98501 12.9151 3.57414C13.5784 2.81678 14.4627 2.40559 15.4422 2.40559C16.4217 2.40559 17.3059 2.81678 17.9693 3.57414C18.317 3.98596 18.601 4.45995 18.8538 4.96454C19.1069 5.43853 19.3597 5.94407 19.6118 6.41742L19.7068 6.60739C22.1021 11.3017 24.4085 16.0408 26.6247 20.8222V20.8537C26.8778 21.3599 27.0987 21.9279 27.3514 22.4341C27.5092 22.8125 27.6673 23.1281 27.762 23.4443C28.0141 24.2647 28.1088 25.0549 27.9823 25.876Z" fill="#191825" fill-opacity="0.37"/>
</svg>
