<svg width="187" height="32" viewBox="0 0 187 32" fill="none" xmlns="http://www.w3.org/2000/svg">
<mask id="mask0_11_405" style="mask-type:luminance" maskUnits="userSpaceOnUse" x="0" y="0" width="187" height="32">
<path d="M186.726 0.320312H0.730042V31.8778H186.726V0.320312Z" fill="white"/>
</mask>
<g mask="url(#mask0_11_405)">
<mask id="mask1_11_405" style="mask-type:luminance" maskUnits="userSpaceOnUse" x="0" y="0" width="187" height="32">
<path d="M186.726 0.321289H0.73053V31.8788H186.726V0.321289Z" fill="white"/>
</mask>
<g mask="url(#mask1_11_405)">
<path d="M73.6647 3.77619C73.6647 2.21775 74.9289 0.946289 76.4946 0.946289C78.0531 0.946289 79.3245 2.21048 79.3245 3.77619C79.27 5.33463 77.955 6.55159 76.3929 6.4971C74.9108 6.44261 73.7229 5.25471 73.6647 3.77619Z" fill="#191825" fill-opacity="0.37"/>
</g>
<mask id="mask2_11_405" style="mask-type:luminance" maskUnits="userSpaceOnUse" x="0" y="0" width="187" height="32">
<path d="M186.726 0.321289H0.73053V31.8788H186.726V0.321289Z" fill="white"/>
</mask>
<g mask="url(#mask2_11_405)">
<path d="M118.264 22.6262C118.264 21.0569 119.528 19.7891 121.083 19.7891C122.648 19.7891 123.916 21.0569 123.916 22.6262C123.916 24.1919 122.648 25.4598 121.083 25.4598C119.528 25.4598 118.264 24.1883 118.264 22.6262Z" fill="#191825" fill-opacity="0.37"/>
</g>
<mask id="mask3_11_405" style="mask-type:luminance" maskUnits="userSpaceOnUse" x="0" y="0" width="187" height="32">
<path d="M186.726 0.321289H0.73053V31.8788H186.726V0.321289Z" fill="white"/>
</mask>
<g mask="url(#mask3_11_405)">
<path d="M27.2857 21.4018C24.8554 21.4018 23.159 19.4692 23.159 16.7047C23.159 13.9438 24.8518 12.0112 27.2857 12.0112C29.7306 12.0112 31.4452 13.9438 31.4452 16.7047C31.4416 19.5128 29.7705 21.4018 27.2857 21.4018ZM27.2857 7.88439C22.1382 7.88439 18.4001 11.5934 18.4001 16.7047C18.4001 21.8159 22.1418 25.5249 27.2857 25.5249C32.4587 25.5249 36.2077 21.8159 36.2077 16.7083C36.2077 11.5934 32.4515 7.88439 27.2857 7.88439ZM68.1939 17.1478C68.0159 16.8027 67.787 16.4794 67.5218 16.1961L67.3656 16.0326L67.5291 15.8764C67.7652 15.6257 68.0086 15.3315 68.2375 14.99L72.782 8.23313H67.2639L63.8492 13.5187C63.6566 13.8057 63.2679 13.9401 62.6831 13.9401H61.902V3.94651C61.902 1.94851 60.6596 1.67969 59.3119 1.67969H57.0087L57.0124 25.2634H61.8984V18.1941H62.3561C62.9119 18.1941 63.2897 18.2595 63.4677 18.561L66.1632 23.6504C66.9188 25.0309 67.6672 25.267 69.0767 25.267H72.8329L70.0393 20.6571L68.1939 17.1478ZM91.9302 7.84806C89.4417 7.84806 87.8542 8.95241 86.9678 9.88965L86.6736 10.1912L86.5682 9.7843C86.3067 8.78167 85.4276 8.23676 84.1016 8.23676H81.9111L81.9256 25.267H86.7826V17.4203C86.7826 16.6502 86.8807 15.989 87.0841 15.3787C87.6254 13.5405 89.1329 12.3926 91.0147 12.3926C92.5296 12.3926 93.1253 13.1918 93.1253 15.2625V22.6805C93.1253 24.4424 93.9391 25.2706 95.7082 25.2706H98.015L98.0041 14.4378C98.0041 10.1185 95.9007 7.84806 91.9302 7.84806ZM76.5564 8.23313H74.2533L74.2678 21.4018V25.2634H76.7236L76.8107 25.267L77.9587 25.2634H79.0957V25.2597H79.1066L79.1175 10.8233C79.1103 9.07955 78.2784 8.23313 76.5564 8.23313ZM46.3539 21.4018C43.9236 21.4018 42.2272 19.4692 42.2272 16.7047C42.2272 13.9438 43.9236 12.0112 46.3539 12.0112C48.7951 12.0112 50.5134 13.9438 50.5134 16.7047C50.5098 19.5128 48.8387 21.4018 46.3539 21.4018ZM46.3539 7.88439C41.2027 7.88439 37.461 11.5934 37.461 16.7047C37.461 21.8159 41.2027 25.5249 46.3539 25.5249C51.516 25.5249 55.2759 21.8159 55.2759 16.7083C55.2759 11.5934 51.5197 7.88439 46.3539 7.88439Z" fill="#191825" fill-opacity="0.37"/>
</g>
</g>
<mask id="mask4_11_405" style="mask-type:luminance" maskUnits="userSpaceOnUse" x="0" y="0" width="187" height="32">
<path d="M186.726 0.320312H0.730042V31.8778H186.726V0.320312Z" fill="white"/>
</mask>
<g mask="url(#mask4_11_405)">
<mask id="mask5_11_405" style="mask-type:luminance" maskUnits="userSpaceOnUse" x="0" y="0" width="187" height="32">
<path d="M186.686 0.942383H0.73053V31.8387H186.686V0.942383Z" fill="white"/>
</mask>
<g mask="url(#mask5_11_405)">
<mask id="mask6_11_405" style="mask-type:luminance" maskUnits="userSpaceOnUse" x="0" y="0" width="187" height="32">
<path d="M186.727 0.322266H0.731018V31.8798H186.727V0.322266Z" fill="white"/>
</mask>
<g mask="url(#mask6_11_405)">
<path d="M150.424 21.4021C147.994 21.4021 146.298 19.4695 146.298 16.705C146.298 13.9442 147.994 12.0115 150.424 12.0115C152.869 12.0115 154.584 13.9442 154.584 16.705C154.584 19.5131 152.909 21.4021 150.424 21.4021ZM150.424 7.88477C145.273 7.88477 141.531 11.5938 141.531 16.705C141.531 21.8163 145.266 25.5253 150.424 25.5253C155.59 25.5253 159.346 21.8163 159.346 16.7087C159.346 11.5938 155.587 7.88477 150.424 7.88477Z" fill="#191825" fill-opacity="0.37"/>
</g>
<mask id="mask7_11_405" style="mask-type:luminance" maskUnits="userSpaceOnUse" x="0" y="0" width="187" height="32">
<path d="M186.727 0.322266H0.731018V31.8798H186.727V0.322266Z" fill="white"/>
</mask>
<g mask="url(#mask7_11_405)">
<path d="M108.238 20.6467C105.582 20.6467 104.642 18.3326 104.642 16.1639C104.642 15.2048 104.885 12.0916 107.991 12.0916C109.531 12.0916 111.584 12.5348 111.584 16.3201C111.58 19.8983 109.76 20.6467 108.238 20.6467ZM114.101 8.19003C113.178 8.19003 112.47 8.55694 112.114 9.22899L111.983 9.49055L111.758 9.29075C110.973 8.61143 109.568 7.80859 107.29 7.80859C102.749 7.80859 99.6938 11.2161 99.6938 16.2946C99.6938 21.3659 102.858 24.9078 107.384 24.9078C108.928 24.9078 110.152 24.5446 111.119 23.8108L111.489 23.531V24.0033C111.489 26.281 110.018 27.5343 107.352 27.5343C106.051 27.5343 104.874 27.2183 104.086 26.9313C103.058 26.6189 102.451 26.8804 102.037 27.9085L101.648 28.8603L101.103 30.2516L101.441 30.4296C103.149 31.3378 105.372 31.8754 107.377 31.8754C111.511 31.8754 116.339 29.7612 116.339 23.8035L116.354 8.17913H114.101" fill="#191825" fill-opacity="0.37"/>
</g>
</g>
</g>
<mask id="mask8_11_405" style="mask-type:luminance" maskUnits="userSpaceOnUse" x="0" y="0" width="187" height="32">
<path d="M186.726 0.320312H0.730042V31.8778H186.726V0.320312Z" fill="white"/>
</mask>
<g mask="url(#mask8_11_405)">
<mask id="mask9_11_405" style="mask-type:luminance" maskUnits="userSpaceOnUse" x="0" y="0" width="187" height="32">
<path d="M186.726 0.321289H0.73053V31.8788H186.726V0.321289Z" fill="white"/>
</mask>
<g mask="url(#mask9_11_405)">
<path d="M9.20553 21.2015L5.24949 21.1979V16.4754C5.24949 15.4618 5.64183 14.9423 6.50278 14.8188H9.19827C11.12 14.8188 12.3624 16.0322 12.3696 17.9938C12.3696 20.01 11.1563 21.2015 9.20553 21.2015ZM5.24949 8.45793V7.21553C5.24949 6.12571 5.70722 5.60987 6.72075 5.54448H8.74418C10.477 5.54448 11.516 6.58344 11.516 8.31988C11.516 9.64583 10.8039 11.1897 8.80593 11.1897H5.24949V8.45793ZM14.2478 13.1732L13.5357 12.77L14.1569 12.236C14.8871 11.6148 16.0968 10.2089 16.0968 7.78587C16.0968 4.07686 13.2233 1.68652 8.77324 1.68652H3.12071C1.80203 1.73375 0.744908 2.81267 0.730377 4.13135V25.1721H8.87859C13.8264 25.1721 17.0159 22.4803 17.0159 18.3099C17.0159 16.0721 15.9806 14.1504 14.2478 13.1732Z" fill="#191825" fill-opacity="0.37"/>
</g>
<mask id="mask10_11_405" style="mask-type:luminance" maskUnits="userSpaceOnUse" x="0" y="0" width="187" height="32">
<path d="M186.726 0.321289H0.73053V31.8788H186.726V0.321289Z" fill="white"/>
</mask>
<g mask="url(#mask10_11_405)">
<path d="M181.034 7.90304C179.006 7.90668 177.085 8.84029 175.821 10.4314L175.468 10.8746L175.192 10.3769C174.291 8.73494 172.747 7.90668 170.589 7.90668C168.334 7.90668 166.819 9.1636 166.114 9.91558L165.656 10.4133L165.478 9.75574C165.224 8.81123 164.381 8.29175 163.11 8.29175H161.068L161.046 25.2566H165.682V17.7659C165.682 17.1084 165.762 16.4618 165.925 15.7824C166.368 13.9733 167.585 12.0262 169.63 12.2187C170.887 12.3422 171.505 13.3158 171.505 15.1939V25.253H176.173V17.7623C176.173 16.9413 176.249 16.3237 176.435 15.7134C176.805 13.9842 178.08 12.2115 180.053 12.2115C181.48 12.2115 182.011 13.0179 182.011 15.1939V22.7718C182.011 24.4828 182.774 25.253 184.488 25.253H186.668L186.672 14.4238C186.686 10.0936 184.779 7.90304 181.034 7.90304ZM138.847 19.3643C138.832 19.3788 136.838 21.4858 134.211 21.4858C131.817 21.4858 129.402 20.0182 129.402 16.7415C129.402 13.9116 131.276 11.9317 133.961 11.9317C134.833 11.9317 135.821 12.2442 135.977 12.7673L135.999 12.8545C136.202 13.5992 136.881 14.1114 137.648 14.1077L140.187 14.1114V11.8881C140.187 8.95654 136.464 7.89941 133.953 7.89941C128.591 7.89941 124.704 11.6302 124.704 16.7705C124.704 21.9072 128.552 25.638 133.855 25.638C138.458 25.638 140.957 22.612 140.983 22.5865L141.114 22.4231L139.101 19.0846L138.847 19.3643Z" fill="#191825" fill-opacity="0.37"/>
</g>
</g>
</svg>
