<svg width="90" height="98" viewBox="0 0 90 98" fill="none" xmlns="http://www.w3.org/2000/svg">
<rect opacity="0.08" x="0.761169" y="0.938965" width="88.7555" height="88.7555" rx="44.3778" fill="url(#paint0_linear_11_633)"/>
<g filter="url(#filter0_dddd_11_633)">
<path d="M31.502 28.396C28.2476 28.396 25.3483 29.7569 23.159 31.887C21.0288 34.0172 19.6679 36.9165 19.6679 40.2301C19.6679 43.4844 21.0288 46.3838 23.159 48.5731L43.336 68.7502L63.5131 48.5731C65.6433 46.4429 67.0042 43.5436 67.0042 40.2301C67.0042 36.9757 65.6433 34.0763 63.5131 31.887C61.383 29.7569 58.4837 28.396 55.1701 28.396C51.9157 28.396 49.0164 29.7569 46.8271 31.887C44.697 34.0172 43.336 36.9165 43.336 40.2301C43.336 36.9757 41.9751 34.0763 39.845 31.887C37.7149 29.7569 34.8155 28.396 31.502 28.396Z" fill="url(#paint1_linear_11_633)"/>
</g>
<defs>
<filter id="filter0_dddd_11_633" x="11.7785" y="26.4237" width="63.115" height="70.9253" filterUnits="userSpaceOnUse" color-interpolation-filters="sRGB">
<feFlood flood-opacity="0" result="BackgroundImageFix"/>
<feColorMatrix in="SourceAlpha" type="matrix" values="0 0 0 0 0 0 0 0 0 0 0 0 0 0 0 0 0 0 127 0" result="hardAlpha"/>
<feOffset dy="0.986172"/>
<feGaussianBlur stdDeviation="1.47926"/>
<feColorMatrix type="matrix" values="0 0 0 0 0 0 0 0 0 0 0 0 0 0 0 0 0 0 0.1 0"/>
<feBlend mode="normal" in2="BackgroundImageFix" result="effect1_dropShadow_11_633"/>
<feColorMatrix in="SourceAlpha" type="matrix" values="0 0 0 0 0 0 0 0 0 0 0 0 0 0 0 0 0 0 127 0" result="hardAlpha"/>
<feOffset dy="4.93086"/>
<feGaussianBlur stdDeviation="2.46543"/>
<feColorMatrix type="matrix" values="0 0 0 0 0 0 0 0 0 0 0 0 0 0 0 0 0 0 0.09 0"/>
<feBlend mode="normal" in2="effect1_dropShadow_11_633" result="effect2_dropShadow_11_633"/>
<feColorMatrix in="SourceAlpha" type="matrix" values="0 0 0 0 0 0 0 0 0 0 0 0 0 0 0 0 0 0 127 0" result="hardAlpha"/>
<feOffset dy="11.8341"/>
<feGaussianBlur stdDeviation="3.4516"/>
<feColorMatrix type="matrix" values="0 0 0 0 0 0 0 0 0 0 0 0 0 0 0 0 0 0 0.05 0"/>
<feBlend mode="normal" in2="effect2_dropShadow_11_633" result="effect3_dropShadow_11_633"/>
<feColorMatrix in="SourceAlpha" type="matrix" values="0 0 0 0 0 0 0 0 0 0 0 0 0 0 0 0 0 0 127 0" result="hardAlpha"/>
<feOffset dy="20.7096"/>
<feGaussianBlur stdDeviation="3.94469"/>
<feColorMatrix type="matrix" values="0 0 0 0 0 0 0 0 0 0 0 0 0 0 0 0 0 0 0.01 0"/>
<feBlend mode="normal" in2="effect3_dropShadow_11_633" result="effect4_dropShadow_11_633"/>
<feBlend mode="normal" in="SourceGraphic" in2="effect4_dropShadow_11_633" result="shape"/>
</filter>
<linearGradient id="paint0_linear_11_633" x1="0.761169" y1="0.938965" x2="89.5167" y2="89.6945" gradientUnits="userSpaceOnUse">
<stop stop-color="#F85E9F"/>
<stop offset="1" stop-color="#F986B7"/>
</linearGradient>
<linearGradient id="paint1_linear_11_633" x1="43.336" y1="28.396" x2="43.336" y2="68.7502" gradientUnits="userSpaceOnUse">
<stop stop-color="#8954BC"/>
<stop offset="1" stop-color="#F85E9F"/>
</linearGradient>
</defs>
</svg>
