<svg width="90" height="98" viewBox="0 0 90 98" fill="none" xmlns="http://www.w3.org/2000/svg">
<rect opacity="0.08" x="0.7612" y="0.538574" width="88.7555" height="88.7555" rx="44.3778" fill="url(#paint0_linear_11_624)"/>
<g filter="url(#filter0_dddd_11_624)">
<path d="M51.8679 21.1103C50.583 21.2455 49.3658 22.1246 48.6896 23.4095C47.8105 25.1677 41.3187 38.219 40.0338 39.5038C38.749 40.7886 37.0584 41.3972 35.1649 41.3972V68.4465H58.8331C60.2532 68.4465 61.4704 67.5674 62.0114 66.3502C62.0114 66.3502 68.9766 46.6719 68.9766 44.7784C68.9766 42.885 67.4888 41.3972 65.5954 41.3972H55.4519C53.5585 41.3972 52.0707 39.7067 52.0707 38.0161C52.0707 36.3255 54.7081 27.3316 55.249 25.5734C55.79 23.8152 54.9109 21.9218 53.1527 21.3131C52.6794 21.1779 52.3412 21.0426 51.8679 21.1103ZM21.6403 41.3972V68.4465H28.4026V41.3972H21.6403Z" fill="url(#paint1_linear_11_624)"/>
</g>
<defs>
<filter id="filter0_dddd_11_624" x="13.7509" y="19.1199" width="63.115" height="77.9258" filterUnits="userSpaceOnUse" color-interpolation-filters="sRGB">
<feFlood flood-opacity="0" result="BackgroundImageFix"/>
<feColorMatrix in="SourceAlpha" type="matrix" values="0 0 0 0 0 0 0 0 0 0 0 0 0 0 0 0 0 0 127 0" result="hardAlpha"/>
<feOffset dy="0.986172"/>
<feGaussianBlur stdDeviation="1.47926"/>
<feColorMatrix type="matrix" values="0 0 0 0 0 0 0 0 0 0 0 0 0 0 0 0 0 0 0.1 0"/>
<feBlend mode="normal" in2="BackgroundImageFix" result="effect1_dropShadow_11_624"/>
<feColorMatrix in="SourceAlpha" type="matrix" values="0 0 0 0 0 0 0 0 0 0 0 0 0 0 0 0 0 0 127 0" result="hardAlpha"/>
<feOffset dy="4.93086"/>
<feGaussianBlur stdDeviation="2.46543"/>
<feColorMatrix type="matrix" values="0 0 0 0 0 0 0 0 0 0 0 0 0 0 0 0 0 0 0.09 0"/>
<feBlend mode="normal" in2="effect1_dropShadow_11_624" result="effect2_dropShadow_11_624"/>
<feColorMatrix in="SourceAlpha" type="matrix" values="0 0 0 0 0 0 0 0 0 0 0 0 0 0 0 0 0 0 127 0" result="hardAlpha"/>
<feOffset dy="11.8341"/>
<feGaussianBlur stdDeviation="3.4516"/>
<feColorMatrix type="matrix" values="0 0 0 0 0 0 0 0 0 0 0 0 0 0 0 0 0 0 0.05 0"/>
<feBlend mode="normal" in2="effect2_dropShadow_11_624" result="effect3_dropShadow_11_624"/>
<feColorMatrix in="SourceAlpha" type="matrix" values="0 0 0 0 0 0 0 0 0 0 0 0 0 0 0 0 0 0 127 0" result="hardAlpha"/>
<feOffset dy="20.7096"/>
<feGaussianBlur stdDeviation="3.94469"/>
<feColorMatrix type="matrix" values="0 0 0 0 0 0 0 0 0 0 0 0 0 0 0 0 0 0 0.01 0"/>
<feBlend mode="normal" in2="effect3_dropShadow_11_624" result="effect4_dropShadow_11_624"/>
<feBlend mode="normal" in="SourceGraphic" in2="effect4_dropShadow_11_624" result="shape"/>
</filter>
<linearGradient id="paint0_linear_11_624" x1="0.7612" y1="0.538574" x2="89.5167" y2="89.2941" gradientUnits="userSpaceOnUse">
<stop stop-color="#8482FF"/>
<stop offset="1" stop-color="#7723FE"/>
</linearGradient>
<linearGradient id="paint1_linear_11_624" x1="45.3084" y1="21.0923" x2="45.3084" y2="68.4465" gradientUnits="userSpaceOnUse">
<stop stop-color="#8F55BB"/>
<stop offset="1" stop-color="#EE5EA2"/>
</linearGradient>
</defs>
</svg>
