<svg width="48" height="41" viewBox="0 0 48 41" fill="none" xmlns="http://www.w3.org/2000/svg">
<path d="M12.502 0.475098C9.24761 0.475098 6.34826 1.83602 4.15896 3.96615C2.02883 6.09628 0.667908 8.99563 0.667908 12.3092C0.667908 15.5635 2.02883 18.4629 4.15896 20.6522L24.336 40.8293L44.5131 20.6522C46.6433 18.5221 48.0042 15.6227 48.0042 12.3092C48.0042 9.0548 46.6433 6.15545 44.5131 3.96615C42.383 1.83602 39.4837 0.475098 36.1701 0.475098C32.9157 0.475098 30.0164 1.83602 27.8271 3.96615C25.697 6.09628 24.336 8.99563 24.336 12.3092C24.336 9.0548 22.9751 6.15545 20.845 3.96615C18.7149 1.83602 15.8155 0.475098 12.502 0.475098Z" fill="url(#paint0_linear_11_637)"/>
<defs>
<linearGradient id="paint0_linear_11_637" x1="24.336" y1="0.475098" x2="24.336" y2="40.8293" gradientUnits="userSpaceOnUse">
<stop stop-color="#8954BC"/>
<stop offset="1" stop-color="#F85E9F"/>
</linearGradient>
</defs>
</svg>
