<svg width="223" height="314" viewBox="0 0 223 314" fill="none" xmlns="http://www.w3.org/2000/svg">
<path d="M42.1258 247.691C42.1258 241.399 36.9521 236.297 30.572 236.297C24.1918 236.297 19.0182 241.399 19.0182 247.691C19.0182 247.691 18.4962 251.649 23.0666 258.078C25.1199 260.973 30.572 269.564 30.572 269.564C30.572 269.564 36.024 260.973 38.0773 258.078C42.6478 251.649 42.1258 247.691 42.1258 247.691ZM30.572 256.202C25.9203 256.202 22.1502 252.484 22.1502 247.897C22.1502 243.31 25.9203 239.592 30.572 239.592C35.2236 239.592 38.9937 243.31 38.9937 247.897C38.9937 252.484 35.2236 256.202 30.572 256.202Z" fill="white"/>
<path d="M57.3091 29.8625C54.765 28.4391 52.1884 27.0157 49.5791 25.6187C48.8615 25.2233 48.6332 24.4326 49.1224 23.8527C49.6116 23.2728 50.5902 23.0883 51.3077 23.4837C53.9496 24.8807 56.5589 26.304 59.1029 27.7538C59.8205 28.1491 60.0163 28.9663 59.4944 29.5462C59.2009 29.9152 58.6789 30.0997 58.1897 30.0997C57.8635 30.0997 57.57 30.0206 57.2764 29.8625H57.3091ZM43.4146 19.3453C40.7727 18.001 38.0982 16.6567 35.3911 15.3388C34.6409 14.9698 33.6625 15.1543 33.2058 15.7869C32.7492 16.3932 33.0101 17.1839 33.7603 17.5529C36.4348 18.8709 39.1093 20.1888 41.7186 21.5331C41.9795 21.6649 42.2731 21.744 42.5666 21.744C43.0885 21.744 43.6104 21.5331 43.9039 21.1377C44.3605 20.5315 44.1648 19.7407 43.4146 19.3717V19.3453ZM102.319 58.409C102.743 58.409 103.167 58.2772 103.493 57.9872C104.081 57.46 104.048 56.6429 103.396 56.1685C101.08 54.4815 98.7315 52.7945 96.3505 51.1076C95.6982 50.6331 94.6871 50.7122 94.1 51.2394C93.5129 51.7666 93.6107 52.5837 94.2631 53.0581C96.644 54.7187 98.9598 56.4057 101.243 58.0927C101.536 58.3299 101.928 58.4353 102.319 58.4353V58.409ZM90.1535 290.682C87.5768 289.364 84.9676 287.993 82.3257 286.57C81.6081 286.175 80.6295 286.333 80.1077 286.913C79.6184 287.493 79.8142 288.283 80.5317 288.705C83.2062 290.155 85.8482 291.552 88.4249 292.87C88.6858 293.002 88.9793 293.054 89.2728 293.054C89.7947 293.054 90.3165 292.843 90.6101 292.448C91.0667 291.842 90.8384 291.051 90.1208 290.682H90.1535ZM27.2697 11.5168C24.5625 10.2516 21.8227 9.01272 19.0504 7.80022C18.2676 7.45755 17.3218 7.69478 16.8978 8.30103C16.4738 8.93364 16.7672 9.69804 17.5174 10.0407C20.2572 11.2532 22.9969 12.4921 25.6714 13.7309C25.9324 13.8364 26.1934 13.8891 26.4543 13.8891C27.0088 13.8891 27.5306 13.6519 27.8241 13.2565C28.2481 12.6502 27.9872 11.8595 27.237 11.5168H27.2697ZM88.1313 48.4717C88.5879 48.4717 89.0446 48.3136 89.3381 47.9973C89.8926 47.4437 89.7947 46.653 89.1424 46.2049C86.7288 44.597 84.3152 42.9891 81.8363 41.4076C81.1514 40.9858 80.1403 41.0649 79.6185 41.6185C79.064 42.172 79.1945 42.9891 79.8795 43.4108C82.3257 44.9924 84.7392 46.5739 87.1528 48.1818C87.4463 48.3926 87.8051 48.4717 88.1639 48.4717H88.1313ZM67.1591 277.74C66.4742 277.318 65.4631 277.424 64.9412 277.977C64.4194 278.531 64.5498 279.348 65.2348 279.769C67.7788 281.351 70.3229 282.853 72.8017 284.303C73.0953 284.461 73.4214 284.54 73.715 284.54C74.2042 284.54 74.6935 284.356 74.987 284.013C75.5089 283.433 75.3458 282.643 74.6282 282.221C72.1494 280.771 69.638 279.269 67.1265 277.713L67.1591 277.74ZM72.443 38.7717C72.7365 38.9562 73.0626 39.0353 73.3888 39.0353C73.878 39.0353 74.3347 38.8508 74.6609 38.5345C75.1827 37.9809 75.0523 37.1638 74.3673 36.7421C71.8885 35.2133 69.3444 33.7108 66.8004 32.2084C66.1154 31.7866 65.1044 31.9184 64.5825 32.4983C64.0606 33.0782 64.2237 33.869 64.9412 34.2907C67.4853 35.7668 69.9968 37.2693 72.443 38.7981V38.7717ZM52.5472 268.277C51.8622 267.829 50.8837 267.882 50.2966 268.435C49.7422 268.989 49.8074 269.78 50.4923 270.254C52.9385 271.915 55.3848 273.522 57.7657 275.078C58.0593 275.262 58.418 275.368 58.7442 275.368C59.2008 275.368 59.6575 275.209 59.9836 274.893C60.5381 274.34 60.4076 273.522 59.7226 273.101C57.3417 271.546 54.9281 269.964 52.4819 268.303L52.5472 268.277ZM213.344 203.566C214.095 206.044 214.78 208.495 215.399 210.92C215.562 211.527 216.215 211.948 216.965 211.948C217.063 211.948 217.193 211.948 217.291 211.948C218.139 211.817 218.693 211.131 218.53 210.446C217.911 207.995 217.226 205.491 216.476 202.987C216.28 202.301 215.432 201.879 214.551 202.038C213.703 202.196 213.181 202.907 213.377 203.593L213.344 203.566ZM217.095 218.354C217.617 220.858 218.041 223.362 218.433 225.813C218.53 226.472 219.215 226.947 219.998 226.947C220.063 226.947 220.129 226.947 220.194 226.947C221.074 226.868 221.694 226.235 221.564 225.523C221.205 223.019 220.748 220.515 220.226 217.958C220.096 217.273 219.248 216.772 218.4 216.904C217.519 217.009 216.965 217.668 217.095 218.38V218.354ZM10.7007 4.18907C7.92829 3.02929 5.12335 1.8695 2.28575 0.736079C1.50296 0.419775 0.557117 0.683363 0.165723 1.31597C-0.22567 1.94858 0.100495 2.71299 0.883281 3.02929C3.68827 4.16271 6.49324 5.29614 9.23299 6.45592C9.4613 6.56136 9.72224 6.58772 9.95055 6.58772C10.505 6.58772 11.0595 6.32413 11.353 5.90239C11.7444 5.26978 11.4509 4.50538 10.6681 4.16271L10.7007 4.18907ZM208.322 189.016C209.267 191.441 210.148 193.866 210.996 196.265C211.192 196.819 211.844 197.188 212.529 197.188C212.66 197.188 212.823 197.188 212.953 197.135C213.801 196.95 214.29 196.239 214.062 195.553C213.214 193.128 212.333 190.703 211.355 188.252C211.094 187.567 210.213 187.198 209.365 187.409C208.517 187.619 208.061 188.331 208.322 189.016ZM219.346 233.299C219.574 235.829 219.737 238.36 219.835 240.811C219.835 241.497 220.553 242.05 221.433 242.05H221.466C222.346 242.05 223.031 241.444 222.999 240.732C222.901 238.228 222.738 235.671 222.51 233.088C222.444 232.376 221.662 231.849 220.814 231.902C219.933 231.955 219.281 232.561 219.346 233.273V233.299ZM205.354 181.873C205.582 182.4 206.202 182.743 206.854 182.743C207.017 182.743 207.213 182.743 207.376 182.664C208.191 182.427 208.648 181.689 208.354 181.03C207.343 178.657 206.234 176.259 205.093 173.86C204.766 173.201 203.853 172.858 203.038 173.122C202.222 173.386 201.798 174.124 202.124 174.783C203.266 177.155 204.31 179.527 205.354 181.873ZM172.966 127.522C173.259 127.917 173.781 128.128 174.303 128.128C174.597 128.128 174.89 128.075 175.151 127.943C175.901 127.574 176.13 126.783 175.673 126.177C174.042 124.042 172.346 121.881 170.617 119.746C170.128 119.139 169.15 118.981 168.432 119.377C167.682 119.772 167.486 120.563 167.975 121.143C169.704 123.278 171.368 125.386 172.998 127.522H172.966ZM191.002 154.012C191.263 154.46 191.85 154.724 192.438 154.724C192.666 154.724 192.894 154.671 193.123 154.592C193.905 154.276 194.231 153.511 193.873 152.879C192.503 150.612 191.1 148.345 189.665 146.052C189.274 145.419 188.295 145.182 187.513 145.498C186.73 145.814 186.436 146.605 186.828 147.238C188.263 149.505 189.665 151.745 191.002 153.986V154.012ZM159.202 310.688C156.234 310.688 153.168 310.504 150.037 310.187C149.189 310.108 148.373 310.609 148.275 311.294C148.178 312.006 148.797 312.639 149.645 312.718C152.907 313.034 156.103 313.219 159.202 313.219C160.082 313.219 160.8 312.639 160.8 311.953C160.8 311.242 160.115 310.662 159.234 310.662L159.202 310.688ZM106.331 298.221C103.657 297.087 100.917 295.875 98.177 294.583C97.4269 294.24 96.4484 294.451 96.0244 295.057C95.6003 295.664 95.8613 296.455 96.6114 296.797C99.4164 298.115 102.189 299.328 104.896 300.487C105.124 300.593 105.385 300.619 105.613 300.619C106.168 300.619 106.722 300.356 107.016 299.934C107.407 299.301 107.114 298.537 106.331 298.194V298.221ZM193.318 301.937C190.905 303.44 188.361 304.758 185.653 305.891C184.871 306.207 184.577 306.998 184.968 307.631C185.262 308.079 185.816 308.316 186.371 308.316C186.632 308.316 186.86 308.263 187.089 308.184C189.926 306.998 192.698 305.575 195.243 303.993C195.927 303.571 196.058 302.754 195.536 302.201C194.982 301.647 194.003 301.542 193.318 301.964V301.937ZM200.755 168.483C201.57 168.219 201.961 167.455 201.603 166.796C200.396 164.476 199.156 162.131 197.852 159.811C197.493 159.178 196.547 158.888 195.764 159.178C194.949 159.468 194.623 160.233 194.982 160.865C196.286 163.185 197.526 165.478 198.7 167.798C198.961 168.298 199.548 168.588 200.167 168.588C200.363 168.588 200.592 168.562 200.787 168.483H200.755ZM185.197 139.357C183.696 137.142 182.131 134.928 180.533 132.714C180.109 132.108 179.13 131.897 178.38 132.266C177.63 132.635 177.369 133.4 177.826 134.006C179.424 136.194 180.957 138.381 182.424 140.595C182.718 141.017 183.24 141.254 183.827 141.254C184.088 141.254 184.349 141.202 184.577 141.096C185.36 140.754 185.621 139.963 185.197 139.357ZM215.693 277.002C214.845 276.765 213.964 277.107 213.671 277.793C212.627 280.191 211.453 282.484 210.148 284.672C209.757 285.305 210.083 286.069 210.898 286.385C211.127 286.465 211.355 286.517 211.583 286.517C212.17 286.517 212.725 286.254 213.018 285.806C214.388 283.539 215.595 281.14 216.671 278.662C216.965 278.003 216.541 277.265 215.693 277.028V277.002ZM221.498 247.111C220.553 247.085 219.9 247.638 219.868 248.35C219.77 250.907 219.607 253.411 219.313 255.836C219.248 256.547 219.868 257.154 220.748 257.233C220.781 257.233 220.846 257.233 220.879 257.233C221.694 257.233 222.379 256.732 222.444 256.073C222.738 253.595 222.901 251.012 222.999 248.429C222.999 247.717 222.346 247.137 221.466 247.111H221.498ZM177.271 308.632C174.433 309.344 171.433 309.871 168.367 310.214C167.486 310.319 166.899 310.952 166.997 311.664C167.095 312.296 167.78 312.771 168.563 312.771C168.628 312.771 168.693 312.771 168.791 312.771C172.02 312.402 175.216 311.848 178.217 311.11C179.065 310.899 179.522 310.187 179.261 309.502C179 308.817 178.119 308.448 177.271 308.659V308.632ZM219.998 262.215C219.15 262.109 218.302 262.584 218.172 263.269C217.682 265.773 217.03 268.251 216.313 270.597C216.084 271.282 216.606 271.967 217.454 272.152C217.585 272.152 217.715 272.178 217.845 272.178C218.563 272.178 219.215 271.783 219.378 271.203C220.129 268.778 220.748 266.247 221.27 263.664C221.401 262.953 220.814 262.294 219.965 262.188L219.998 262.215ZM207.832 290.708C207.115 290.313 206.104 290.471 205.647 291.077C203.951 293.16 202.059 295.137 200.07 296.903C199.483 297.43 199.515 298.247 200.167 298.721C200.461 298.932 200.852 299.064 201.244 299.064C201.668 299.064 202.092 298.932 202.418 298.642C204.538 296.771 206.528 294.688 208.322 292.501C208.811 291.921 208.615 291.104 207.865 290.735L207.832 290.708ZM130.173 77.6508C128.053 75.7793 125.901 73.9342 123.715 72.0891C123.096 71.5883 122.117 71.562 121.465 72.0628C120.845 72.5636 120.813 73.3543 121.432 73.8815C123.618 75.7003 125.738 77.5454 127.825 79.3905C128.151 79.6541 128.575 79.8122 128.999 79.8122C129.391 79.8122 129.782 79.7068 130.076 79.4696C130.728 78.9951 130.76 78.178 130.173 77.6508ZM123.291 304.415C120.486 303.519 117.616 302.543 114.746 301.489C113.963 301.199 113.017 301.489 112.626 302.122C112.267 302.754 112.626 303.519 113.409 303.809C116.344 304.889 119.28 305.891 122.15 306.814C122.346 306.866 122.541 306.893 122.737 306.893C123.357 306.893 123.976 306.576 124.205 306.075C124.531 305.417 124.107 304.678 123.291 304.415ZM115.985 68.847C116.377 68.847 116.801 68.7152 117.094 68.478C117.714 67.9772 117.714 67.16 117.094 66.6592C114.876 64.8668 112.626 63.1008 110.343 61.3348C109.723 60.834 108.712 60.8603 108.092 61.3875C107.473 61.8883 107.505 62.7054 108.158 63.2062C110.441 64.9459 112.659 66.712 114.876 68.478C115.17 68.7152 115.594 68.847 115.985 68.847ZM159.985 107.146C159.463 106.566 158.484 106.435 157.767 106.856C157.049 107.278 156.886 108.069 157.408 108.649C159.234 110.705 161.061 112.761 162.789 114.817C163.083 115.186 163.605 115.37 164.094 115.37C164.42 115.37 164.714 115.291 165.007 115.133C165.725 114.738 165.921 113.92 165.399 113.341C163.638 111.258 161.811 109.176 159.952 107.12L159.985 107.146ZM153.103 103.087C153.429 103.087 153.787 103.008 154.048 102.823C154.733 102.402 154.896 101.585 154.342 101.031C152.45 99.0277 150.526 97.0245 148.536 95.0212C147.982 94.4677 147.003 94.3886 146.318 94.8103C145.633 95.2584 145.536 96.0492 146.057 96.6027C148.014 98.5796 149.939 100.583 151.798 102.56C152.124 102.902 152.581 103.061 153.07 103.061L153.103 103.087ZM141.002 308.869C138.099 308.342 135.098 307.683 132.065 306.919C131.217 306.708 130.336 307.077 130.076 307.762C129.815 308.448 130.271 309.159 131.119 309.37C134.218 310.161 137.316 310.82 140.317 311.374C140.448 311.374 140.545 311.4 140.676 311.4C141.393 311.4 142.046 311.005 142.209 310.398C142.404 309.713 141.85 309.028 141.002 308.869ZM136.468 83.3179C135.881 82.7908 134.87 82.7381 134.218 83.2125C133.565 83.687 133.5 84.4777 134.087 85.0312C136.142 86.9291 138.197 88.8533 140.187 90.7775C140.513 91.0938 140.937 91.2256 141.393 91.2256C141.752 91.2256 142.111 91.1201 142.404 90.9356C143.089 90.4875 143.155 89.6704 142.6 89.1168C140.611 87.1663 138.556 85.2421 136.468 83.3179Z" fill="white"/>
</svg>
