<svg width="373" height="282" viewBox="0 0 373 282" fill="none" xmlns="http://www.w3.org/2000/svg">
<path d="M56.8893 268.663C56.6808 269.107 56.2117 269.354 55.7427 269.354C55.5602 269.354 55.3778 269.329 55.2215 269.255C52.9021 268.244 50.6349 267.183 48.4198 266.072C47.7943 265.752 47.5598 265.036 47.8986 264.444C48.2374 263.852 48.9931 263.63 49.6185 263.951C51.7555 265.036 53.9966 266.097 56.2639 267.084C56.8893 267.355 57.176 268.071 56.8893 268.663ZM52.4591 82.1447C52.9021 81.6266 52.7979 80.8618 52.2506 80.467C51.7033 80.0476 50.8955 80.1463 50.4785 80.6644C48.8889 82.5394 47.3513 84.4145 45.8659 86.2896C45.4489 86.8077 45.5532 87.5725 46.1004 87.9672C46.335 88.1399 46.5956 88.2139 46.8562 88.2139C47.2471 88.2139 47.6119 88.0412 47.8725 87.7452C49.3579 85.8948 50.8955 84.0197 52.4591 82.1694V82.1447ZM43.2078 260.423C41.0969 259.164 39.0381 257.832 37.0836 256.475C36.5103 256.08 35.7285 256.204 35.3116 256.722C34.8946 257.265 35.0249 258.005 35.5722 258.4C37.5788 259.806 39.6896 261.163 41.8526 262.446C42.0611 262.569 42.2957 262.618 42.5302 262.618C42.9472 262.618 43.3641 262.421 43.5987 262.051C43.9635 261.484 43.8071 260.743 43.2078 260.398V260.423ZM34.5298 103.387C33.9564 103.017 33.1486 103.19 32.7837 103.732C31.3765 105.756 30.0214 107.754 28.7184 109.752C28.3535 110.32 28.5359 111.06 29.1353 111.405C29.3438 111.529 29.5783 111.578 29.8129 111.578C30.2298 111.578 30.6468 111.381 30.8813 111.011C32.1843 109.037 33.5134 107.038 34.8946 105.04C35.2855 104.497 35.1291 103.732 34.5298 103.387ZM25.956 247.297C25.4608 246.829 24.653 246.804 24.1578 247.297C23.6627 247.766 23.6366 248.531 24.1578 249C25.9039 250.702 27.7541 252.355 29.6826 253.934C29.9171 254.131 30.2298 254.23 30.5165 254.23C30.8813 254.23 31.2201 254.082 31.4807 253.811C31.9498 253.317 31.8716 252.552 31.3504 252.108C29.4741 250.579 27.676 248.95 25.982 247.297H25.956ZM70.0757 59.0026C68.3557 60.779 66.6879 62.5307 65.02 64.2824C64.551 64.7758 64.6031 65.5406 65.1243 65.9847C65.3588 66.1821 65.6715 66.2808 65.9582 66.2808C66.297 66.2808 66.6618 66.1327 66.8964 65.886C68.5382 64.1343 70.206 62.3826 71.8999 60.631C72.369 60.1375 72.3429 59.3727 71.8217 58.9286C71.3005 58.4845 70.4927 58.5092 70.0236 59.0026H70.0757ZM84.4869 275.768C82.0373 275.275 79.6137 274.708 77.2422 274.115C76.5647 273.918 75.861 274.337 75.6786 274.954C75.4962 275.596 75.9132 276.262 76.5907 276.41C78.9882 277.027 81.4639 277.569 83.9397 278.088C84.0178 278.088 84.1221 278.112 84.2002 278.112C84.7736 278.112 85.3208 277.718 85.4511 277.175C85.6075 276.533 85.1645 275.892 84.4869 275.744V275.768ZM61.8668 69.5375C61.3456 69.118 60.5377 69.1674 60.0686 69.6608C58.4268 71.4865 56.8111 73.3122 55.2215 75.1133C54.7784 75.6314 54.8566 76.3715 55.3778 76.8156C55.6124 76.9883 55.899 77.087 56.1857 77.087C56.5505 77.087 56.9154 76.939 57.176 76.6429C58.7396 74.8419 60.3553 73.0408 61.9971 71.2151C62.4401 70.7217 62.388 69.9569 61.8668 69.5128V69.5375ZM92.8522 38.6238C92.3571 38.155 91.5492 38.1303 91.0541 38.5991C89.2299 40.2768 87.4578 41.9298 85.6857 43.5828C85.1905 44.0516 85.1905 44.8164 85.6857 45.2851C85.9202 45.5319 86.259 45.6305 86.5717 45.6305C86.8844 45.6305 87.2232 45.5072 87.4578 45.2851C89.2038 43.6321 90.9759 41.9791 92.8001 40.3261C93.2952 39.8574 93.3213 39.0925 92.8261 38.6238H92.8522ZM70.1278 272.142C67.7303 271.402 65.3849 270.612 63.1177 269.798C62.4662 269.551 61.7365 269.872 61.4759 270.489C61.2153 271.105 61.5541 271.796 62.2056 272.043C64.4988 272.882 66.8964 273.696 69.346 274.436C69.4763 274.486 69.6066 274.486 69.7369 274.486C70.2842 274.486 70.7793 274.165 70.9357 273.647C71.1442 273.005 70.7793 272.339 70.1278 272.142ZM77.0598 55.4499C78.7537 53.7475 80.4737 52.0452 82.2458 50.3428C82.7409 49.8741 82.7148 49.1093 82.2458 48.6405C81.7506 48.1717 80.9427 48.1964 80.4476 48.6405C78.6755 50.3675 76.9295 52.0699 75.2356 53.7722C74.7665 54.2656 74.7665 55.0058 75.2877 55.4746C75.5222 55.6966 75.835 55.7953 76.1477 55.7953C76.4865 55.7953 76.8253 55.6719 77.0598 55.4252V55.4499ZM1.2771 191.292C1.98072 191.292 2.52798 190.774 2.55404 190.108C2.55404 187.789 2.68434 185.445 2.86676 183.101C2.91888 182.435 2.39768 181.868 1.69406 181.818C1.0165 181.794 0.391054 182.263 0.338934 182.929C0.130453 185.322 0.0262127 187.74 0.000152588 190.108C0.000152588 190.774 0.547414 191.317 1.25104 191.317L1.2771 191.292ZM3.54432 204.072C3.17948 201.803 2.91888 199.459 2.76252 197.115C2.7104 196.449 2.11102 195.955 1.4074 196.005C0.703775 196.054 0.182573 196.622 0.234693 197.288C0.391054 199.681 0.677714 202.099 1.04256 204.442C1.1468 205.035 1.668 205.479 2.29344 205.479C2.34556 205.479 2.42374 205.479 2.47586 205.479C3.17948 205.38 3.64856 204.763 3.54432 204.122V204.072ZM2.26738 177.131C2.26738 177.131 2.39768 177.131 2.4498 177.131C3.07524 177.131 3.6225 176.687 3.70068 176.095C4.03946 173.825 4.45643 171.481 4.95157 169.162C5.08187 168.52 4.63885 167.879 3.96128 167.756C3.28372 167.632 2.60616 168.052 2.47586 168.693C1.98072 171.062 1.5377 173.43 1.19892 175.749C1.09468 176.415 1.58982 177.008 2.26738 177.106V177.131ZM5.08187 163.191C5.08187 163.191 5.29035 163.241 5.39459 163.241C5.96791 163.241 6.46305 162.871 6.61941 162.352C7.21879 160.132 7.92242 157.838 8.67816 155.592C8.88664 154.951 8.5218 154.285 7.84424 154.087C7.16667 153.89 6.46305 154.235 6.25457 154.877C5.49883 157.171 4.79521 159.491 4.16976 161.76C3.98734 162.402 4.40431 163.068 5.08187 163.216V163.191ZM38.0479 99.6863C38.4388 99.6863 38.8557 99.5136 39.0903 99.1682C40.4975 97.2685 41.9308 95.3441 43.4162 93.395C43.8332 92.8522 43.7029 92.1121 43.1296 91.7173C42.5563 91.3226 41.7745 91.4459 41.3575 91.9887C39.846 93.9378 38.4127 95.8622 37.0055 97.8112C36.6146 98.354 36.7449 99.0942 37.3182 99.4889C37.5267 99.637 37.7873 99.711 38.0479 99.711V99.6863ZM16.6525 236.466C16.2616 235.924 15.4798 235.776 14.8805 236.146C14.3071 236.516 14.1508 237.256 14.5417 237.823C15.9489 239.797 17.4865 241.746 19.0761 243.597C19.3367 243.893 19.7016 244.041 20.0664 244.041C20.3531 244.041 20.6397 243.942 20.8743 243.769C21.4215 243.35 21.4997 242.585 21.0567 242.092C19.4931 240.29 18.0077 238.391 16.6525 236.491V236.466ZM15.0629 136.447C15.2453 136.521 15.4017 136.546 15.5841 136.546C16.0792 136.546 16.5222 136.274 16.7307 135.855C17.7471 133.758 18.8155 131.636 19.9361 129.49C20.2488 128.898 19.9882 128.182 19.3628 127.886C18.7373 127.59 17.9816 127.837 17.6689 128.429C16.5222 130.6 15.4277 132.746 14.4114 134.868C14.1247 135.46 14.4114 136.176 15.0368 136.447H15.0629ZM4.95157 210.956C4.79521 210.314 4.11764 209.895 3.44008 210.068C2.76252 210.216 2.34556 210.857 2.50192 211.499C3.07524 213.842 3.77886 216.186 4.56067 218.431C4.74309 218.925 5.23823 219.246 5.75943 219.246C5.88973 219.246 6.02003 219.245 6.15033 219.196C6.80183 218.999 7.16667 218.308 6.95819 217.691C6.20245 215.495 5.52489 213.226 4.95157 210.956ZM13.0823 140.765C12.4308 140.518 11.7011 140.814 11.4405 141.406C10.4763 143.651 9.5642 145.872 8.70422 148.068C8.46968 148.684 8.80846 149.375 9.45996 149.597C9.59026 149.647 9.74662 149.671 9.90298 149.671C10.4242 149.671 10.9193 149.375 11.1017 148.882C11.9357 146.711 12.8217 144.515 13.7859 142.294C14.0465 141.678 13.7338 140.987 13.1084 140.74L13.0823 140.765ZM9.5642 224.229C9.27754 223.612 8.54786 223.341 7.89636 223.612C7.24485 223.884 6.95819 224.575 7.24485 225.191C8.2612 227.387 9.38178 229.558 10.6066 231.68C10.8411 232.075 11.2581 232.297 11.7272 232.297C11.9357 232.297 12.1441 232.247 12.3266 232.149C12.952 231.828 13.1605 231.113 12.8217 230.52C11.649 228.473 10.5545 226.376 9.5642 224.254V224.229ZM26.6075 115.427C26.0081 115.081 25.2263 115.279 24.8615 115.871C23.5845 117.968 22.3597 120.04 21.1609 122.088C20.8222 122.68 21.0567 123.396 21.6821 123.717C21.8646 123.815 22.073 123.865 22.2815 123.865C22.7245 123.865 23.1676 123.643 23.4021 123.248C24.5748 121.2 25.7996 119.152 27.0505 117.08C27.4154 116.512 27.2069 115.772 26.5814 115.452L26.6075 115.427ZM270.843 239.205C268.653 240.365 266.464 241.475 264.275 242.585C263.65 242.906 263.415 243.621 263.754 244.213C263.989 244.608 264.432 244.855 264.875 244.855C265.083 244.855 265.292 244.805 265.474 244.707C267.663 243.597 269.878 242.462 272.093 241.302C272.693 240.981 272.927 240.241 272.589 239.674C272.25 239.106 271.468 238.884 270.869 239.205H270.843ZM244.157 252.01C241.864 252.996 239.596 253.959 237.329 254.896C236.678 255.168 236.391 255.858 236.678 256.475C236.886 256.919 237.355 257.191 237.85 257.191C238.007 257.191 238.189 257.166 238.346 257.092C240.639 256.154 242.932 255.168 245.225 254.181C245.851 253.909 246.138 253.194 245.851 252.602C245.564 252.01 244.809 251.738 244.183 252.01H244.157ZM257.63 245.842C255.389 246.927 253.148 247.963 250.933 248.975C250.307 249.271 250.047 249.986 250.333 250.579C250.542 250.998 251.011 251.245 251.48 251.245C251.662 251.245 251.845 251.195 252.027 251.121C254.268 250.085 256.509 249.049 258.777 247.963C259.402 247.667 259.637 246.952 259.324 246.36C259.011 245.768 258.255 245.521 257.63 245.842ZM202.331 267.281C199.933 267.997 197.536 268.663 195.164 269.304C194.486 269.477 194.096 270.143 194.304 270.785C194.46 271.303 194.982 271.648 195.529 271.648C195.633 271.648 195.763 271.648 195.868 271.599C198.265 270.957 200.663 270.267 203.086 269.551C203.764 269.354 204.129 268.688 203.92 268.046C203.712 267.405 203.008 267.059 202.331 267.257V267.281ZM230.449 257.659C228.13 258.572 225.811 259.436 223.491 260.275C222.84 260.521 222.501 261.212 222.762 261.829C222.944 262.298 223.439 262.594 223.934 262.594C224.091 262.594 224.247 262.569 224.403 262.52C226.723 261.681 229.068 260.793 231.388 259.88C232.039 259.633 232.352 258.918 232.065 258.326C231.805 257.709 231.049 257.413 230.423 257.684L230.449 257.659ZM216.507 262.766C214.136 263.581 211.79 264.345 209.445 265.11C208.793 265.332 208.429 265.998 208.637 266.64C208.82 267.133 209.315 267.454 209.836 267.454C209.966 267.454 210.096 267.454 210.253 267.38C212.624 266.615 214.996 265.85 217.367 265.036C218.019 264.814 218.358 264.123 218.123 263.507C217.888 262.89 217.159 262.569 216.507 262.791V262.766ZM283.794 232.099C281.631 233.333 279.494 234.517 277.358 235.702C276.758 236.022 276.55 236.762 276.888 237.33C277.123 237.725 277.54 237.922 277.983 237.922C278.191 237.922 278.426 237.873 278.608 237.749C280.771 236.565 282.934 235.356 285.097 234.123C285.697 233.777 285.879 233.037 285.54 232.47C285.176 231.902 284.394 231.729 283.794 232.05V232.099ZM308.864 216.63C306.805 217.987 304.747 219.32 302.688 220.652C302.115 221.022 301.958 221.762 302.349 222.329C302.584 222.675 303.001 222.848 303.392 222.848C303.626 222.848 303.887 222.774 304.095 222.65C306.154 221.318 308.239 219.986 310.297 218.604C310.871 218.234 311.001 217.469 310.61 216.926C310.219 216.384 309.411 216.26 308.838 216.63H308.864ZM322.754 208.563C322.337 208.045 321.529 207.921 320.982 208.316C318.975 209.747 316.969 211.129 314.962 212.51C314.389 212.905 314.259 213.645 314.676 214.188C314.936 214.509 315.301 214.681 315.692 214.681C315.953 214.681 316.213 214.607 316.448 214.459C318.454 213.078 320.487 211.671 322.494 210.24C323.041 209.846 323.171 209.081 322.754 208.563ZM296.46 224.575C294.349 225.882 292.264 227.14 290.153 228.399C289.554 228.744 289.371 229.484 289.762 230.052C289.997 230.422 290.414 230.619 290.831 230.619C291.065 230.619 291.3 230.57 291.508 230.446C293.619 229.188 295.73 227.905 297.841 226.598C298.44 226.228 298.596 225.487 298.206 224.945C297.815 224.402 297.033 224.229 296.46 224.599V224.575ZM114.065 279.297C111.563 279.198 109.088 279.05 106.612 278.852C105.882 278.754 105.309 279.297 105.257 279.938C105.205 280.604 105.726 281.172 106.403 281.221C108.879 281.418 111.407 281.566 113.935 281.665H113.987C114.664 281.665 115.212 281.172 115.264 280.53C115.29 279.864 114.743 279.296 114.065 279.272V279.297ZM126.209 11.8303C126.756 11.4108 126.808 10.646 126.365 10.1279C125.922 9.63448 125.115 9.56046 124.567 9.97988C122.639 11.5342 120.736 13.0639 118.86 14.5935C118.339 15.0376 118.261 15.7777 118.73 16.2958C118.99 16.5672 119.329 16.7153 119.694 16.7153C119.981 16.7153 120.293 16.6166 120.528 16.4192C122.404 14.8896 124.307 13.3599 126.235 11.8056L126.209 11.8303ZM113.179 19.2811C111.277 20.8601 109.4 22.4391 107.576 24.0181C107.055 24.4622 107.003 25.227 107.472 25.7204C107.732 25.9918 108.071 26.1152 108.41 26.1152C108.723 26.1152 109.009 26.0165 109.27 25.8191C111.094 24.2401 112.971 22.6858 114.873 21.1068C115.394 20.6627 115.446 19.9226 114.977 19.4045C114.508 18.911 113.7 18.8617 113.179 19.3058V19.2811ZM187.945 271.155C185.522 271.747 183.098 272.314 180.701 272.857C180.023 273.005 179.606 273.647 179.763 274.288C179.893 274.831 180.414 275.226 180.987 275.226C181.092 275.226 181.17 275.226 181.274 275.201C183.698 274.658 186.147 274.091 188.597 273.499C189.274 273.326 189.691 272.684 189.509 272.043C189.327 271.402 188.623 271.007 187.971 271.18L187.945 271.155ZM128.971 279.395C127.043 279.445 125.141 279.469 123.264 279.469H121.518C120.867 279.371 120.241 279.987 120.241 280.653C120.241 281.32 120.789 281.862 121.492 281.862H123.264C125.167 281.862 127.095 281.862 129.05 281.788C129.753 281.788 130.301 281.221 130.274 280.555C130.274 279.889 129.701 279.395 128.971 279.395ZM99.2109 278.112C96.7091 277.816 94.2594 277.471 91.8359 277.101C91.1583 277.002 90.4807 277.421 90.3765 278.088C90.2462 278.754 90.7153 279.371 91.4189 279.469C93.8685 279.864 96.3703 280.209 98.8981 280.505C98.9502 280.505 99.0024 280.505 99.0545 280.505C99.6799 280.505 100.227 280.061 100.305 279.445C100.384 278.778 99.8884 278.186 99.2109 278.112ZM102.025 28.8044C100.175 30.4327 98.3248 32.0611 96.5267 33.6647C96.0315 34.1335 96.0055 34.8737 96.4745 35.3671C96.7351 35.6138 97.0479 35.7372 97.3867 35.7372C97.6994 35.7372 98.0121 35.6385 98.2466 35.4164C100.045 33.8128 101.869 32.1844 103.719 30.5808C104.24 30.1367 104.267 29.3719 103.797 28.8784C103.328 28.385 102.52 28.3603 101.999 28.8044H102.025ZM158.706 276.854C156.23 277.199 153.755 277.52 151.305 277.816C150.601 277.89 150.106 278.482 150.21 279.148C150.289 279.765 150.836 280.209 151.461 280.209C151.513 280.209 151.566 280.209 151.618 280.209C154.093 279.938 156.569 279.617 159.097 279.247C159.801 279.148 160.27 278.532 160.165 277.89C160.061 277.224 159.436 276.78 158.732 276.879L158.706 276.854ZM173.404 274.362C170.954 274.831 168.505 275.3 166.055 275.694C165.377 275.818 164.908 276.435 165.039 277.076C165.143 277.668 165.69 278.063 166.289 278.063C166.368 278.063 166.446 278.063 166.524 278.063C168.974 277.643 171.449 277.199 173.925 276.706C174.603 276.583 175.046 275.941 174.915 275.275C174.785 274.634 174.108 274.214 173.43 274.337L173.404 274.362ZM137.936 1.0734C137.493 0.555289 136.685 0.481266 136.164 0.900685C134.21 2.40566 132.255 3.91064 130.353 5.41562C129.805 5.83504 129.727 6.59986 130.196 7.11796C130.457 7.41402 130.822 7.56205 131.187 7.56205C131.473 7.56205 131.76 7.46337 131.994 7.29066C133.897 5.78569 135.825 4.30538 137.78 2.80041C138.327 2.38099 138.405 1.61617 137.962 1.12273L137.936 1.0734ZM143.852 278.556C141.35 278.778 138.874 278.951 136.399 279.074C135.695 279.124 135.174 279.691 135.2 280.333C135.252 280.974 135.799 281.468 136.451 281.468H136.529C139.005 281.32 141.532 281.147 144.06 280.925C144.764 280.875 145.259 280.283 145.207 279.617C145.155 278.951 144.529 278.507 143.826 278.532L143.852 278.556Z" fill="white"/>
<path d="M364.937 184.254C368.655 181.321 372.688 177.086 372.038 176.298C371.387 175.51 366.313 178.443 362.595 181.394C362.261 181.669 361.926 181.926 361.61 182.182C360.959 182.072 359.603 181.852 357.874 181.577C357.892 181.577 357.93 181.577 357.948 181.577L358.952 180.789C359.082 180.698 359.082 180.496 358.952 180.368L358.171 179.414C358.06 179.268 357.874 179.231 357.744 179.341L356.74 180.129C356.74 180.129 356.666 180.239 356.647 180.313L355.476 181.229C354.008 180.991 352.409 180.734 350.829 180.478L351.814 179.708C351.944 179.616 351.944 179.414 351.814 179.286L351.034 178.333C350.922 178.186 350.736 178.15 350.606 178.26L349.602 179.048C349.602 179.048 349.528 179.158 349.509 179.231L348.376 180.111C344.361 179.469 340.996 178.956 340.885 178.993C340.606 179.084 339.175 180.294 339.175 180.294C338.822 180.569 338.58 180.826 338.599 180.863C338.636 180.899 339.045 180.624 339.379 180.368L346.759 183.026C346.498 183.264 346.35 183.484 346.405 183.557C346.48 183.649 346.814 183.484 347.149 183.209L347.186 183.172L348.636 183.704C348.394 183.924 348.246 184.144 348.301 184.217C348.376 184.309 348.71 184.144 349.045 183.869L350.365 184.327L351.164 184.895C350.866 185.152 350.662 185.409 350.718 185.482C350.792 185.574 351.127 185.409 351.461 185.134H351.48L353.06 186.233C352.762 186.49 352.558 186.747 352.632 186.82C352.707 186.912 353.041 186.747 353.376 186.472L354.826 187.498C352.353 189.496 351.387 190.303 349.547 191.769C347.688 193.236 345.996 194.775 344.64 196.15C342.446 195.82 338.115 195.105 338.115 195.105L337 195.839L341.703 199.431C341.442 199.78 341.238 200.055 341.126 200.275C340.402 200.935 339.974 201.374 340.03 201.448C340.086 201.521 340.606 201.228 341.387 200.678C341.628 200.605 341.963 200.44 342.39 200.238L344.937 205.609L345.922 204.711C345.922 204.711 346.182 200.091 346.331 197.983C347.93 196.993 349.751 195.82 351.647 194.519C353.952 192.704 354.993 191.934 357.13 190.284L357.818 191.898C357.465 192.191 357.242 192.466 357.316 192.557C357.372 192.631 357.669 192.502 358.004 192.264L358.766 194.042H358.748C358.394 194.336 358.171 194.629 358.246 194.702C358.301 194.775 358.617 194.647 358.933 194.409L359.324 195.289L359.51 196.664C359.156 196.938 358.933 197.232 359.008 197.323C359.064 197.397 359.305 197.305 359.584 197.103L359.788 198.625H359.751C359.398 198.918 359.175 199.211 359.249 199.303C359.305 199.376 359.565 199.266 359.844 199.065L360.848 206.745C360.532 207.02 360.16 207.35 360.179 207.387C360.216 207.424 360.513 207.24 360.867 206.965C360.867 206.965 362.391 205.847 362.521 205.609C362.577 205.517 362.8 202.163 363.06 198.167L364.194 197.287C364.194 197.287 364.342 197.287 364.398 197.25L365.402 196.462C365.532 196.37 365.532 196.169 365.402 196.04L364.621 195.087C364.51 194.94 364.324 194.904 364.194 195.014L363.209 195.784C363.301 194.207 363.394 192.631 363.487 191.146L364.658 190.229C364.658 190.229 364.807 190.229 364.863 190.193L365.867 189.405C365.997 189.313 365.997 189.111 365.867 188.983L365.086 188.03C364.974 187.883 364.788 187.847 364.658 187.956L363.655 188.745C363.655 188.745 363.655 188.781 363.617 188.818C363.729 187.113 363.803 185.775 363.841 185.115C364.157 184.859 364.491 184.602 364.844 184.327L364.937 184.254Z" fill="white"/>
</svg>
